<svg xmlns="http://www.w3.org/2000/svg" width="32.679" height="30.5" viewBox="0 0 32.679 30.5">
  <g id="bathtub" transform="translate(0 -17.067)">
    <g id="Group_59" data-name="Group 59" transform="translate(0 17.067)">
      <g id="Group_58" data-name="Group 58">
        <path id="Path_61" data-name="Path 61" d="M31.045,33.406H30.5V21.969a4.907,4.907,0,0,0-4.9-4.9c-2.417,0-4.146,1.79-4.338,4.411a2.726,2.726,0,0,0-2.2,2.67.544.544,0,0,0,.545.545h4.357a.544.544,0,0,0,.545-.545,2.726,2.726,0,0,0-2.154-2.661c.158-1.727,1.178-3.33,3.243-3.33a3.817,3.817,0,0,1,3.812,3.812V33.406H13.016a2.728,2.728,0,0,0-2.668-2.179h-.011a2.7,2.7,0,0,0-4.581.394,2.684,2.684,0,0,0-1.4-.394,2.728,2.728,0,0,0-2.668,2.179H1.634a1.634,1.634,0,0,0,0,3.268H2.3L3.755,42.5a3.807,3.807,0,0,0,3.7,2.888h.38l-.7,1.39a.545.545,0,0,0,.975.487l.938-1.877H24.172l.938,1.877a.545.545,0,0,0,.975-.487l-.7-1.4a3.8,3.8,0,0,0,3.54-2.875l1.457-5.826h.664a1.634,1.634,0,0,0,0-3.268Zm0,2.179H1.634a.545.545,0,1,1,0-1.089H31.045a.545.545,0,1,1,0,1.089Z" transform="translate(0 -17.067)" fill="#4925e1"/>
        <path id="Path_62" data-name="Path 62" d="M299.212,154.962a.544.544,0,0,0,.545-.545v-.272a.545.545,0,1,0-1.089,0v.272A.544.544,0,0,0,299.212,154.962Z" transform="translate(-279.605 -144.886)" fill="#4925e1"/>
        <path id="Path_63" data-name="Path 63" d="M299.212,188.834a.544.544,0,0,0,.545-.545v-.623a.545.545,0,0,0-1.089,0v.623A.545.545,0,0,0,299.212,188.834Z" transform="translate(-279.605 -176.268)" fill="#4925e1"/>
        <path id="Path_64" data-name="Path 64" d="M299.212,227.5a.544.544,0,0,0,.545-.545v-.272a.545.545,0,1,0-1.089,0v.272A.545.545,0,0,0,299.212,227.5Z" transform="translate(-279.605 -212.79)" fill="#4925e1"/>
        <path id="Path_65" data-name="Path 65" d="M333.345,154.962a.544.544,0,0,0,.545-.545v-.272a.545.545,0,1,0-1.089,0v.272A.544.544,0,0,0,333.345,154.962Z" transform="translate(-311.559 -144.886)" fill="#4925e1"/>
        <path id="Path_66" data-name="Path 66" d="M332.8,188.288a.545.545,0,0,0,1.089,0v-.623a.545.545,0,0,0-1.089,0Z" transform="translate(-311.559 -176.267)" fill="#4925e1"/>
        <path id="Path_67" data-name="Path 67" d="M332.8,226.95a.545.545,0,1,0,1.089,0v-.272a.545.545,0,0,0-1.089,0Z" transform="translate(-311.559 -212.789)" fill="#4925e1"/>
        <path id="Path_68" data-name="Path 68" d="M367.479,154.962a.544.544,0,0,0,.545-.545v-.272a.545.545,0,1,0-1.089,0v.272A.544.544,0,0,0,367.479,154.962Z" transform="translate(-343.514 -144.886)" fill="#4925e1"/>
        <path id="Path_69" data-name="Path 69" d="M366.933,188.288a.545.545,0,0,0,1.089,0v-.623a.545.545,0,1,0-1.089,0Z" transform="translate(-343.513 -176.267)" fill="#4925e1"/>
        <path id="Path_70" data-name="Path 70" d="M366.933,226.95a.545.545,0,1,0,1.089,0v-.272a.545.545,0,0,0-1.089,0Z" transform="translate(-343.513 -212.789)" fill="#4925e1"/>
      </g>
    </g>
  </g>
</svg>
