<svg xmlns="http://www.w3.org/2000/svg" width="29.687" height="15.833" viewBox="0 0 29.687 15.833">
  <path id="bed" d="M29.192,0H27.213a.5.5,0,0,0-.495.495V3.513a5.037,5.037,0,0,0-3.464-1.039c-3.279,0-4.143,1.63-4.371,2.474H16.823v-.99a.991.991,0,0,0-.99-.99H13.854a.991.991,0,0,0-.99.99H2.474A1.486,1.486,0,0,0,.99,5.443V7.917H.495A.5.5,0,0,0,0,8.411v6.927a.5.5,0,0,0,.495.495H1.979a.494.494,0,0,0,.488-.413l.426-2.555h23.9l.426,2.555a.494.494,0,0,0,.488.413h1.484a.5.5,0,0,0,.495-.495V.495A.5.5,0,0,0,29.192,0ZM23.255,3.464c2.319,0,3.085.9,3.338,1.484H19.917c.254-.589,1.021-1.484,3.338-1.484Zm3.464,2.474V7.917h-9.9V5.937ZM13.854,3.958h1.979V7.917H13.854ZM1.979,5.443a.5.5,0,0,1,.495-.495H12.864V7.917H1.979ZM.99,8.906H26.719v2.969H.99Zm.571,5.937H.99V12.864h.9Zm27.137,0h-.571l-.419-2.515V.99h.99Zm0,0" fill="#4925e1"/>
</svg>
