<svg xmlns="http://www.w3.org/2000/svg" width="57.874" height="56.205" viewBox="0 0 57.874 56.205">
  <g id="booking" transform="translate(-0.081 0.493)">
    <path id="Path_795" data-name="Path 795" d="M43,25.8a14.865,14.865,0,0,0-6.052,1.28v-13.8a1.067,1.067,0,0,0-1.068-1.067H34.519V8.95a1.067,1.067,0,0,0-1.067-1.067H31.067V6.6a1.067,1.067,0,1,0-2.135,0V7.883h-2.45A1.068,1.068,0,0,0,25.415,8.95v3.258H23.99V7.978a1.067,1.067,0,0,0-1.067-1.067H20.179V3.594a1.067,1.067,0,0,0-1.067-1.067H12.976V.575a1.067,1.067,0,0,0-2.135,0V2.527H4.959A1.067,1.067,0,0,0,3.892,3.594V6.911H1.149A1.067,1.067,0,0,0,.081,7.978v39.18a1.068,1.068,0,0,0,1.067,1.067H30.04A14.957,14.957,0,1,0,43,25.8ZM6.026,4.661H18.044v2.25H6.026Zm9.3,41.43H12.976V39.555h2.347Zm-4.482,0H8.748V39.555h2.093Zm11.014,0h-4.4v-7.6a1.067,1.067,0,0,0-1.067-1.067H7.681a1.067,1.067,0,0,0-1.067,1.067v7.6h-4.4V9.046H21.855Zm5.7-36.074h4.834v2.191H27.55ZM23.99,46.091V14.342H34.81v13.9a15.061,15.061,0,0,0-2.162,1.722,1.072,1.072,0,0,0-.323-.051h-5.8a1.067,1.067,0,0,0,0,2.135H30.84a14.975,14.975,0,0,0-1.577,2.782H26.529a1.067,1.067,0,1,0,0,2.135h2a14.875,14.875,0,0,0-.473,3.171H26.529a1.067,1.067,0,1,0,0,2.135h1.585a14.84,14.84,0,0,0,.908,3.821ZM43,53.578A12.824,12.824,0,1,1,55.82,40.755,12.823,12.823,0,0,1,43,53.578Zm0,0" fill="#4925e1"/>
    <path id="Path_796" data-name="Path 796" d="M47.638,197.623H60.576a1.067,1.067,0,0,0,0-2.135H47.638a1.067,1.067,0,0,0,0,2.135Zm0,0" transform="translate(-42.069 -177.349)" fill="#4925e1"/>
    <path id="Path_797" data-name="Path 797" d="M47.638,260.229H60.576a1.067,1.067,0,0,0,0-2.135H47.638a1.067,1.067,0,0,0,0,2.135Zm0,0" transform="translate(-42.069 -234.003)" fill="#4925e1"/>
    <path id="Path_798" data-name="Path 798" d="M47.638,322.837H60.576a1.067,1.067,0,0,0,0-2.135H47.638a1.067,1.067,0,1,0,0,2.135Zm0,0" transform="translate(-42.069 -290.66)" fill="#4925e1"/>
    <path id="Path_799" data-name="Path 799" d="M47.638,135.017H60.576a1.067,1.067,0,0,0,0-2.135H47.638a1.067,1.067,0,1,0,0,2.135Zm0,0" transform="translate(-42.069 -120.696)" fill="#4925e1"/>
    <path id="Path_800" data-name="Path 800" d="M268.118,265.677h5.564a1.067,1.067,0,0,0,0-2.135h-5.564a1.067,1.067,0,0,0,0,2.135Zm0,0" transform="translate(-241.589 -238.934)" fill="#4925e1"/>
    <path id="Path_801" data-name="Path 801" d="M268.118,211.233h5.564a1.067,1.067,0,0,0,0-2.135h-5.564a1.067,1.067,0,0,0,0,2.135Zm0,0" transform="translate(-241.589 -189.665)" fill="#4925e1"/>
    <path id="Path_802" data-name="Path 802" d="M374.447,354.821a7.489,7.489,0,1,0-1.509,1.509l3.4,3.4a1.068,1.068,0,0,0,1.51-1.51Zm-11.335-4.479a5.346,5.346,0,1,1,9.2,3.7,1.085,1.085,0,0,0-.156.156,5.342,5.342,0,0,1-9.045-3.854Zm0,0" transform="translate(-326.573 -310.698)" fill="#4925e1"/>
  </g>
</svg>
