<svg xmlns="http://www.w3.org/2000/svg" width="70.667" height="70.667" viewBox="0 0 70.667 70.667">
  <g id="building" transform="translate(0 0)">
    <g id="Group_2" data-name="Group 2" transform="translate(0 0)">
      <g id="Group_1" data-name="Group 1">
        <path id="Path_1" data-name="Path 1" d="M209.628,24.725c-.073,1.1-.117,2.268-.117,3.542,0,5.9,1.761,9.422,4.711,9.422,3.719,0,4.711-4.441,4.711-7.067a1.178,1.178,0,0,0-2.355,0c0,.047-.1,4.711-2.356,4.711-1.365,0-2.356-2.972-2.356-7.067,0-13.732,4.819-15.3,4.971-15.339a1.178,1.178,0,0,0-.491-2.3,4.922,4.922,0,0,0-2.116,1.151,2.367,2.367,0,0,1,.072-.607,2.355,2.355,0,1,1,3.453,2.65,1.178,1.178,0,0,0,1.178,2.04,4.725,4.725,0,1,0-6.513-1.9,20.186,20.186,0,0,0-2.48,7.734,11.6,11.6,0,1,1,5.256,3.619,1.177,1.177,0,0,0-.747,2.233A14.135,14.135,0,1,0,204.8,14.133,14.267,14.267,0,0,0,209.628,24.725Z" transform="translate(-176.533 0)" fill="#fff"/>
        <path id="Path_2" data-name="Path 2" d="M383.746,171.421l-12.232-12.232a1.178,1.178,0,0,0-1.665,1.665l11.887,11.887v4.224h-4.224l-.488-.488v-3.046a1.178,1.178,0,0,0-1.178-1.178h-1.178v-1.178a1.178,1.178,0,0,0-1.178-1.178h-3.045l-.489-.489v-3.045a1.178,1.178,0,0,0-1.178-1.178h-3.046l-.114-.114a1.178,1.178,0,1,0-1.665,1.665l.459.459a1.175,1.175,0,0,0,.833.345H367.6V169.9a1.176,1.176,0,0,0,.344.832l1.178,1.18a1.177,1.177,0,0,0,.834.345h2.356v1.178a1.178,1.178,0,0,0,1.178,1.178h1.178v2.356a1.175,1.175,0,0,0,.345.833l1.178,1.178a1.175,1.175,0,0,0,.833.345h5.889a1.178,1.178,0,0,0,1.178-1.178v-5.889A1.175,1.175,0,0,0,383.746,171.421Z" transform="translate(-313.424 -136.92)" fill="#fff"/>
        <path id="Path_3" data-name="Path 3" d="M51.2,137.712a1.178,1.178,0,0,0,1.178,1.178h1.178v7.067H52.378a1.178,1.178,0,0,0,0,2.355h1.178v7.067H52.378a1.178,1.178,0,0,0,0,2.355h1.178V164.8H52.378a1.178,1.178,0,1,0,0,2.355h1.178v7.067H52.378a1.178,1.178,0,1,0,0,2.355h1.178v5.889a1.178,1.178,0,0,0,2.355,0v-5.889h4.711v5.889a1.178,1.178,0,0,0,2.355,0v-5.889h4.711v5.889a1.178,1.178,0,0,0,2.355,0v-5.889h4.711v5.889a1.178,1.178,0,0,0,2.355,0v-5.889h1.178a1.178,1.178,0,1,0,0-2.355H77.111v-7.067h1.178a1.178,1.178,0,1,0,0-2.355H77.111v-7.067a1.178,1.178,0,1,0,0-2.355,1.178,1.178,0,1,0-2.355,0H70.044v-7.067h3.533a1.178,1.178,0,0,0,0-2.355H70.044v-7.067h.589a1.178,1.178,0,0,0,0-2.355H52.378A1.178,1.178,0,0,0,51.2,137.712Zm18.844,20.022h4.711V164.8H70.044Zm0,9.422h4.711v7.067H70.044Zm-7.067-28.267h4.711v7.067H62.978Zm0,9.422h4.711v7.067H62.978Zm0,9.422h4.711V164.8H62.978Zm0,9.422h4.711v7.067H62.978Zm-7.067-28.267h4.711v7.067H55.911Zm0,9.422h4.711v7.067H55.911Zm0,9.422h4.711V164.8H55.911Zm0,9.422h4.711v7.067H55.911Z" transform="translate(-44.133 -117.689)" fill="#fff"/>
        <path id="Path_4" data-name="Path 4" d="M127.711,104.756a1.178,1.178,0,0,0,0-2.355h-7.067a1.178,1.178,0,0,0,0,2.355Z" transform="translate(-102.978 -88.268)" fill="#fff"/>
        <path id="Path_5" data-name="Path 5" d="M69.489,127.157H51.822v-4.83a5.9,5.9,0,0,0,4.711-5.77c0-.153-.067-15.311-5.889-15.311s-5.889,15.158-5.889,15.311a5.9,5.9,0,0,0,4.711,5.77v4.83H40.044V100.068a1.178,1.178,0,0,0-2.355,0v27.089H4.711V75.335h8.244a1.178,1.178,0,0,0,1.178-1.178V70.623h10.6a1.178,1.178,0,1,0,0-2.355H12.956a1.178,1.178,0,0,0-1.178,1.178v3.533H3.533a1.178,1.178,0,0,0-1.178,1.178v53H1.178a1.178,1.178,0,0,0,0,2.355H69.489a1.178,1.178,0,0,0,0-2.356Zm-22.378-10.6c0-5.868,1.576-12.956,3.533-12.956s3.533,7.088,3.533,12.956a3.533,3.533,0,1,1-7.067,0Z" transform="translate(0 -58.846)" fill="#fff"/>
      </g>
    </g>
  </g>
</svg>
