<svg xmlns="http://www.w3.org/2000/svg" width="25.347" height="25.29" viewBox="0 0 25.347 25.29">
  <g id="call-answer" transform="translate(0 -0.394)">
    <g id="Group_57" data-name="Group 57" transform="translate(0 0.394)">
      <g id="Group_56" data-name="Group 56" transform="translate(0 0)">
        <path id="Path_58" data-name="Path 58" d="M24.778,20.4l-3.914-3.915a2.041,2.041,0,0,0-2.878.054l-1.972,1.972-.389-.216a19.625,19.625,0,0,1-4.744-3.431,19.735,19.735,0,0,1-3.438-4.752c-.073-.132-.143-.259-.212-.38L8.555,8.406l.651-.652a2.039,2.039,0,0,0,.053-2.878L5.344.962a2.039,2.039,0,0,0-2.878.054l-1.1,1.11.03.03a6.38,6.38,0,0,0-.909,1.6,6.648,6.648,0,0,0-.4,1.626C-.437,9.67,1.521,13.586,6.835,18.9c7.346,7.345,13.265,6.79,13.521,6.763a6.614,6.614,0,0,0,1.631-.41,6.358,6.358,0,0,0,1.6-.905l.024.021,1.118-1.094A2.043,2.043,0,0,0,24.778,20.4Z" transform="translate(0 -0.394)" fill="#4925e1"/>
      </g>
    </g>
  </g>
</svg>
