<svg id="dollar-symbol" xmlns="http://www.w3.org/2000/svg" width="6.98" height="13.471" viewBox="0 0 6.98 13.471">
  <path id="Path_13" data-name="Path 13" d="M122.015,6.119a16.219,16.219,0,0,0-1.647-.746,3.7,3.7,0,0,1-.9-.506.786.786,0,0,1,.195-1.4,1.587,1.587,0,0,1,.554-.114,4.2,4.2,0,0,1,2.081.412c.328.159.437.109.548-.234.117-.362.214-.729.323-1.093a.382.382,0,0,0-.248-.509,5.29,5.29,0,0,0-1.313-.392c-.6-.092-.6-.095-.6-.693C121,0,121,0,120.157,0c-.122,0-.245,0-.367,0-.4.011-.462.081-.473.479-.006.178,0,.356,0,.537,0,.529-.006.52-.512.7a2.823,2.823,0,0,0-2.062,2.615A2.68,2.68,0,0,0,118.257,6.9a16.763,16.763,0,0,0,1.895.851,2.814,2.814,0,0,1,.69.406.946.946,0,0,1-.225,1.658,2.269,2.269,0,0,1-1.216.159,5.427,5.427,0,0,1-1.853-.554c-.342-.178-.442-.131-.559.239-.1.32-.189.643-.278.965-.12.434-.075.537.339.74a5.916,5.916,0,0,0,1.669.479c.451.072.465.092.47.559,0,.211,0,.426.006.637a.378.378,0,0,0,.406.428c.312.006.626.006.938,0a.357.357,0,0,0,.387-.4c0-.289.014-.581,0-.871a.46.46,0,0,1,.4-.523,3.144,3.144,0,0,0,1.639-1.052A2.957,2.957,0,0,0,122.015,6.119Z" transform="translate(-116.652 0)" fill="#4925e1"/>
</svg>
