<svg xmlns="http://www.w3.org/2000/svg" width="25.765" height="25.765" viewBox="0 0 25.765 25.765">
  <g id="house" transform="translate(0 -0.001)">
    <g id="Group_4" data-name="Group 4" transform="translate(0 0.001)">
      <g id="Group_3" data-name="Group 3">
        <path id="Path_16" data-name="Path 16" d="M25.261,24.76H23.047V20.784a.5.5,0,1,0-1.006,0V24.76H16V15.2a.5.5,0,0,0-.5-.5H10.265a.5.5,0,0,0-.5.5V24.76H3.724V13.387h.194a.5.5,0,0,0,.356-.147L12.882,4.63l8.609,8.609a.5.5,0,0,0,.356.147h.194v3.774a.5.5,0,0,0,1.006,0V13.387h2.214a.5.5,0,0,0,.356-.859L13.238.149a.5.5,0,0,0-.712,0L7.8,4.879a.5.5,0,0,0,.712.712l4.374-4.374L24.046,12.38H22.055L13.238,3.563a.5.5,0,0,0-.712,0L3.709,12.38H1.718L5.69,8.409A.5.5,0,0,0,4.978,7.7L.147,12.528a.5.5,0,0,0,.356.859H2.717V24.759H.5a.5.5,0,0,0,0,1.006H25.261a.5.5,0,1,0,0-1.006ZM15,24.76H10.769V15.7H15Z" transform="translate(0 -0.001)" fill="#4925e1"/>
      </g>
    </g>
    <g id="Group_6" data-name="Group 6" transform="translate(17.109 14.695)">
      <g id="Group_5" data-name="Group 5">
        <path id="Path_17" data-name="Path 17" d="M343.322,292H340.5a.5.5,0,0,0-.5.5v5.032a.5.5,0,0,0,.5.5h2.818a.5.5,0,0,0,.5-.5v-5.032A.5.5,0,0,0,343.322,292Zm-.5,5.032h-1.812v-4.026h1.812Z" transform="translate(-340.001 -292.002)" fill="#4925e1"/>
      </g>
    </g>
    <g id="Group_8" data-name="Group 8" transform="translate(4.831 14.695)">
      <g id="Group_7" data-name="Group 7">
        <path id="Path_18" data-name="Path 18" d="M99.322,292H96.5a.5.5,0,0,0-.5.5v5.032a.5.5,0,0,0,.5.5h2.818a.5.5,0,0,0,.5-.5v-5.032A.5.5,0,0,0,99.322,292Zm-.5,5.032H97.007v-4.026h1.812Z" transform="translate(-96.001 -292.002)" fill="#4925e1"/>
      </g>
    </g>
    <g id="Group_10" data-name="Group 10" transform="translate(10.567 8.27)">
      <g id="Group_9" data-name="Group 9">
        <path id="Path_19" data-name="Path 19" d="M212.316,164.322a2.315,2.315,0,1,0,2.315,2.315A2.317,2.317,0,0,0,212.316,164.322Zm0,3.623a1.308,1.308,0,1,1,1.308-1.308A1.31,1.31,0,0,1,212.316,167.945Z" transform="translate(-210.001 -164.322)" fill="#4925e1"/>
      </g>
    </g>
    <g id="Group_12" data-name="Group 12" transform="translate(11.423 19.727)">
      <g id="Group_11" data-name="Group 11">
        <path id="Path_20" data-name="Path 20" d="M227.86,392.15a.5.5,0,1,0,.148.356A.507.507,0,0,0,227.86,392.15Z" transform="translate(-227.001 -392.002)" fill="#4925e1"/>
      </g>
    </g>
    <g id="Group_14" data-name="Group 14" transform="translate(6.189 6.191)">
      <g id="Group_13" data-name="Group 13">
        <path id="Path_21" data-name="Path 21" d="M123.86,123.149a.5.5,0,1,0,.147.356A.507.507,0,0,0,123.86,123.149Z" transform="translate(-123.001 -123.002)" fill="#4925e1"/>
      </g>
    </g>
    <g id="Group_16" data-name="Group 16" transform="translate(22.041 18.335)">
      <g id="Group_15" data-name="Group 15">
        <path id="Path_22" data-name="Path 22" d="M438.86,364.478a.5.5,0,1,0,.148.356A.507.507,0,0,0,438.86,364.478Z" transform="translate(-438.001 -364.331)" fill="#4925e1"/>
      </g>
    </g>
  </g>
</svg>
