<svg id="iconfinder_LinkedIn_194920" xmlns="http://www.w3.org/2000/svg" width="50" height="50" viewBox="0 0 50 50">
  <g id="LinkedIn">
    <path id="Oval-1" d="M25,50A25,25,0,1,0,0,25,25,25,0,0,0,25,50Zm0-3A22,22,0,1,0,3,25,22,22,0,0,0,25,47ZM14,20.118v14.54h4.71V20.118ZM16.665,13a2.515,2.515,0,1,0-.061,5.025h.03A2.516,2.516,0,1,0,16.665,13Zm13.912,7.118a4.659,4.659,0,0,0-4.246,2.4V20.46H21.621c.062,1.364,0,14.54,0,14.54h4.711V26.88a3.39,3.39,0,0,1,.155-1.179A2.586,2.586,0,0,1,28.9,23.933c1.7,0,2.387,1.333,2.387,3.287V35H36V26.663C36,22.2,33.676,20.118,30.577,20.118Zm0,0" fill="#fff" fill-rule="evenodd"/>
  </g>
</svg>
