<svg xmlns="http://www.w3.org/2000/svg" width="39.113" height="53.999" viewBox="0 0 39.113 53.999">
  <g id="maps-and-flags_1_" data-name="maps-and-flags(1)" transform="translate(-70.573)">
    <g id="Group_84" data-name="Group 84" transform="translate(70.573)">
      <g id="Group_83" data-name="Group 83" transform="translate(0)">
        <path id="Path_806" data-name="Path 806" d="M90.13,0A19.579,19.579,0,0,0,70.573,19.556c0,13.383,17.5,33.029,18.246,33.859a1.762,1.762,0,0,0,2.62,0c.745-.83,18.246-20.476,18.246-33.859A19.579,19.579,0,0,0,90.13,0Zm0,49.541c-5.89-7-16.035-20.8-16.035-29.985a16.035,16.035,0,1,1,32.07,0C106.164,28.742,96.021,42.542,90.13,49.541Z" transform="translate(-70.573 0)" fill="#4925e1"/>
      </g>
    </g>
    <g id="Group_86" data-name="Group 86" transform="translate(80.29 9.717)">
      <g id="Group_85" data-name="Group 85">
        <path id="Path_807" data-name="Path 807" d="M172.547,92.134a9.839,9.839,0,1,0,9.839,9.839A9.85,9.85,0,0,0,172.547,92.134Zm0,16.157a6.318,6.318,0,1,1,6.318-6.318A6.325,6.325,0,0,1,172.547,108.291Z" transform="translate(-162.708 -92.134)" fill="#4925e1"/>
      </g>
    </g>
  </g>
</svg>
