<svg id="parking-sign" xmlns="http://www.w3.org/2000/svg" width="30" height="30" viewBox="0 0 30 30">
  <g id="drive-ms-powerpoint">
    <path id="Path_59" data-name="Path 59" d="M26.666,0H3.333A3.343,3.343,0,0,0,0,3.333V26.666A3.343,3.343,0,0,0,3.333,30H26.666A3.343,3.343,0,0,0,30,26.666V3.333A3.343,3.343,0,0,0,26.666,0ZM11.333,17.333v6h-3V6.667H15.5c2.5,0,3.667.5,4.667,1.5A4.689,4.689,0,0,1,21.666,12a4.782,4.782,0,0,1-1.5,3.833c-1,.833-2.167,1.333-4.667,1.333H11.333Z" fill="#4925e1"/>
    <path id="Path_60" data-name="Path 60" d="M173.4,143.7v-6h3.833a2.925,2.925,0,0,1,2.5,1,3.075,3.075,0,0,1,.833,2,3.168,3.168,0,0,1-.833,2.167,3.022,3.022,0,0,1-2.333.833Z" transform="translate(-162.067 -128.7)" fill="#4925e1"/>
  </g>
</svg>
