<?xml version="1.0" encoding="UTF-8"?>
<svg width="30px" height="14px" viewBox="0 0 30 14" version="1.1" xmlns="http://www.w3.org/2000/svg" xmlns:xlink="http://www.w3.org/1999/xlink">
    <!-- Generator: Sketch 55.2 (78181) - https://sketchapp.com -->
    <title>Untitled 2</title>
    <desc>Created with Sketch.</desc>
    <g id="Page-1" stroke="none" stroke-width="1" fill="none" fill-rule="evenodd">
        <g id="password-eye" fill="#000000" fill-rule="nonzero">
            <path d="M29.7909073,1.72027317 C30.0906146,1.24074146 30.0306732,0.581385366 29.5511415,0.221736585 C29.0716098,-0.137912195 28.4122537,-0.0180292683 28.0526049,0.461502439 C27.9926634,0.521443902 22.0584585,7.53459512 14.9853659,7.53459512 C8.15203902,7.53459512 1.91812683,0.461502439 1.85818537,0.401560976 C1.49853659,-0.0180292683 0.779239024,-0.0779707317 0.35964878,0.281678049 C-0.0599414634,0.641326829 -0.119882927,1.36062439 0.239765854,1.78021463 C0.35964878,1.96003902 1.61841951,3.39863415 3.65642927,5.01705366 L0.899121951,7.83430244 C0.479531707,8.25389268 0.539473171,8.97319024 0.959063415,9.33283902 C1.07894634,9.57260488 1.3187122,9.63254634 1.61841951,9.63254634 C1.85818537,9.63254634 2.15789268,9.51266341 2.39765854,9.33283902 L5.33479024,6.27582439 C6.7134439,7.2348878 8.39180488,8.13400976 10.1900488,8.79336585 L9.05116098,12.569678 C8.87133659,13.1690927 9.23098537,13.7685073 9.8304,13.8883902 L10.1900488,13.8883902 C10.6695805,13.8883902 11.0891707,13.5886829 11.2090537,13.1091512 L12.3479415,9.33283902 C13.187122,9.51266341 14.1461854,9.57260488 15.0453073,9.57260488 C15.9444293,9.57260488 16.8435512,9.45272195 17.7426732,9.33283902 L18.881561,13.1091512 C19.0014439,13.5886829 19.4809756,13.8883902 19.9005659,13.8883902 C20.0204488,13.8883902 20.1403317,13.8883902 20.1403317,13.8284488 C20.7397463,13.6486244 21.0394537,13.0492098 20.9195707,12.5097366 L19.7207415,8.79336585 C21.5189854,8.13400976 23.1973463,7.2348878 24.576,6.27582439 L27.4531902,9.27289756 C27.6929561,9.51266341 27.932722,9.57260488 28.2324293,9.57260488 C28.4721951,9.57260488 28.7719024,9.45272195 29.0116683,9.27289756 C29.4312585,8.85330732 29.4312585,8.19395122 29.0716098,7.77436098 L26.3143024,4.9571122 C28.4721951,3.27875122 29.7909073,1.72027317 29.7909073,1.72027317 Z" id="Path"></path>
        </g>
    </g>
</svg>