<?xml version="1.0" encoding="UTF-8"?>
<svg width="30px" height="25px" viewBox="0 0 30 25" version="1.1" xmlns="http://www.w3.org/2000/svg" xmlns:xlink="http://www.w3.org/1999/xlink">
    <!-- Generator: Sketch 55.2 (78181) - https://sketchapp.com -->
    <title>Untitled 2</title>
    <desc>Created with Sketch.</desc>
    <g id="Page-1" stroke="none" stroke-width="1" fill="none" fill-rule="evenodd">
        <g id="password-eye-open" fill="#000000" fill-rule="nonzero">
            <path d="M29.9041323,14.641514 L29.6349422,14.1463417 C28.6468072,12.3353659 27.1924234,10.6126996 25.4461212,9.16265634 L28.6346538,7.17020815 C28.9489851,6.97378072 29.0445551,6.55981519 28.8481671,6.2454445 C28.6517397,5.9310738 28.2376952,5.83554328 27.9234034,6.03197071 L24.3117507,8.28875545 C24.1433393,8.16864193 23.9730732,8.05081704 23.8006369,7.93591211 C22.3224593,6.95121008 20.7724266,6.21273285 19.1995471,5.73602738 L20.7692699,0.904654203 C20.8838197,0.552126517 20.6909435,0.173595308 20.3384159,0.0590060668 C19.9858883,-0.0555831748 19.6073176,0.137371851 19.4927678,0.489860051 L17.8964496,5.40275576 C16.9298592,5.20029108 15.9597966,5.09659253 14.9973889,5.09659253 C14.0348629,5.09659253 13.0648002,5.20021215 12.0983677,5.40259793 L10.502089,0.489820604 C10.3875786,0.137332404 10.009008,-0.0555831748 9.65644084,0.0589666195 C9.30395263,0.173516414 9.1110765,0.552087108 9.22558685,0.904614756 L10.7952702,5.73579062 C9.22227231,6.21253554 7.6725553,6.95113114 6.19512737,7.935991 C6.02261213,8.05101432 5.85230665,8.16895758 5.68389517,8.28918949 L2.0714533,6.03189177 C1.75712206,5.83546434 1.34311708,5.93099483 1.14668965,6.24536557 C0.950262224,6.5597363 1.04583216,6.97370179 1.36020289,7.17012922 L4.55007717,9.16348496 C3.07612165,10.388927 1.8125621,11.8084289 0.863767866,13.3110318 C0.684584075,13.5920201 0.516251491,13.8758889 0.359638303,14.1620069 L0.265094267,14.3355481 L0.097827108,14.628532 C-0.0268636889,14.8469381 -0.0267453085,15.1150233 0.0981033162,15.3333506 L0.376605694,15.820197 C1.65527807,18.1669486 3.72131753,20.3681749 6.19481171,22.0188283 C8.98370252,23.8800355 12.0275781,24.86383 14.99731,24.86383 C17.9658582,24.86383 21.0100889,23.8800355 23.8007948,22.0189072 C26.2761436,20.368096 28.3478651,18.1648572 29.6350607,15.8136469 L29.9037378,15.320408 C30.0191161,15.1088677 30.019195,14.8532516 29.9041323,14.641514 Z M28.388429,15.1329378 C26.1275799,19.2626885 20.8019025,23.443381 14.9974283,23.443381 C9.18379955,23.443381 3.86755284,19.2634777 1.62079072,15.1345556 C1.6183837,15.1301361 1.61593724,15.1257562 1.61345132,15.1213762 L1.53283635,14.9804678 L1.61372753,14.8387306 C1.61629238,14.8342323 1.61877829,14.829734 1.6212642,14.8251962 C1.7536495,14.5810627 1.89720174,14.3367713 2.05057928,14.0931508 C4.51432704,10.2222123 9.54453467,6.53250949 14.9975466,6.53250949 C20.8112148,6.53250949 26.1274615,10.7123733 28.3741842,14.8412954 C28.3765912,14.8457149 28.3790377,14.8501343 28.381563,14.8544748 L28.4422512,14.9605409 L28.460718,14.9605409 L28.4715298,14.9804282 L28.388429,15.1329378 Z M14.9974283,11.0149063 C17.1839758,11.0149063 18.9628319,12.7937624 18.9628319,14.9802704 C18.9628319,17.1667391 17.1839758,18.9456346 14.9974283,18.9456346 C12.8109202,18.9456346 11.0320642,17.1667391 11.0320642,14.9802704 C11.0320642,12.7937624 12.8109202,11.0149063 14.9974283,11.0149063 L14.9974283,11.0149063 Z M14.9974283,9.59437843 C12.0228824,9.59437843 9.61153627,12.0057245 9.61153627,14.9802704 C9.61153627,17.9548558 12.0228824,20.3661625 14.9974283,20.3661625 C17.9720137,20.3661625 20.3833598,17.9548559 20.3833598,14.9802704 C20.3833598,12.0057245 17.9720137,9.59437843 14.9974283,9.59437843 L14.9974283,9.59437843 Z" id="Shape"></path>
        </g>
    </g>
</svg>