<svg xmlns="http://www.w3.org/2000/svg" width="51.73" height="51.806" viewBox="0 0 51.73 51.806">
  <g id="phone-call" transform="translate(-0.345 4)">
    <g id="Group_82" data-name="Group 82" transform="translate(0.344 -4)">
      <path id="Path_803" data-name="Path 803" d="M41.25,56.5a5.1,5.1,0,0,0-3.7-1.695,5.269,5.269,0,0,0-3.739,1.684L30.36,59.935c-.284-.153-.569-.3-.842-.437-.394-.2-.765-.383-1.082-.579a37.553,37.553,0,0,1-9-8.2,22.155,22.155,0,0,1-2.952-4.658c.9-.82,1.728-1.673,2.537-2.493.306-.306.612-.623.918-.929a5.017,5.017,0,0,0,0-7.566l-2.985-2.985c-.339-.339-.689-.689-1.017-1.039-.656-.678-1.345-1.378-2.056-2.034a5.176,5.176,0,0,0-3.663-1.607A5.356,5.356,0,0,0,6.5,29.013l-.022.022-3.718,3.75A8,8,0,0,0,.389,37.87a19.167,19.167,0,0,0,1.4,8.113,47.079,47.079,0,0,0,8.364,13.952A51.454,51.454,0,0,0,27.287,73.351a26.7,26.7,0,0,0,9.622,2.843c.23.011.47.022.689.022A8.239,8.239,0,0,0,43.907,73.5c.011-.022.033-.033.044-.055a24.857,24.857,0,0,1,1.913-1.979c.47-.448.951-.918,1.421-1.41a5.455,5.455,0,0,0,1.651-3.783,5.255,5.255,0,0,0-1.684-3.75Zm3.914,11.513c-.011,0-.011.011,0,0-.426.459-.864.875-1.334,1.334a28.75,28.75,0,0,0-2.11,2.187,5.271,5.271,0,0,1-4.111,1.739c-.164,0-.339,0-.5-.011A23.715,23.715,0,0,1,28.577,70.7a48.57,48.57,0,0,1-16.139-12.64,44.39,44.39,0,0,1-7.872-13.11A15.612,15.612,0,0,1,3.342,38.11a5.019,5.019,0,0,1,1.509-3.247l3.728-3.728a2.485,2.485,0,0,1,1.662-.776,2.339,2.339,0,0,1,1.6.765l.033.033c.667.623,1.3,1.268,1.968,1.957.339.35.689.7,1.039,1.061l2.985,2.985a2.087,2.087,0,0,1,0,3.39c-.317.317-.623.634-.94.94-.918.94-1.793,1.815-2.744,2.668-.022.022-.044.033-.055.055a2.23,2.23,0,0,0-.569,2.482l.033.1a23.965,23.965,0,0,0,3.532,5.762l.011.011A40.132,40.132,0,0,0,26.839,61.4a14.926,14.926,0,0,0,1.345.733c.394.2.765.383,1.082.58.044.022.087.055.131.077a2.37,2.37,0,0,0,1.082.273,2.338,2.338,0,0,0,1.662-.754l3.739-3.739a2.474,2.474,0,0,1,1.651-.82,2.227,2.227,0,0,1,1.574.8l.022.022,6.025,6.025A2.162,2.162,0,0,1,45.164,68.015Z" transform="translate(-0.344 -24.409)" fill="#4925e1"/>
      <path id="Path_804" data-name="Path 804" d="M246.159,88.853a14.072,14.072,0,0,1,11.459,11.459,1.467,1.467,0,0,0,1.454,1.225,1.953,1.953,0,0,0,.251-.022,1.478,1.478,0,0,0,1.214-1.706,17.015,17.015,0,0,0-13.864-13.864,1.484,1.484,0,0,0-1.706,1.2A1.46,1.46,0,0,0,246.159,88.853Z" transform="translate(-218.199 -76.53)" fill="#4925e1"/>
      <path id="Path_805" data-name="Path 805" d="M273.32,22.853A28.018,28.018,0,0,0,250.49.023a1.474,1.474,0,1,0-.481,2.908,25.026,25.026,0,0,1,20.4,20.4,1.467,1.467,0,0,0,1.454,1.225,1.952,1.952,0,0,0,.251-.022A1.449,1.449,0,0,0,273.32,22.853Z" transform="translate(-221.612 0)" fill="#4925e1"/>
    </g>
  </g>
</svg>
