<svg xmlns="http://www.w3.org/2000/svg" width="64.632" height="65" viewBox="0 0 64.632 65">
  <g id="rent" transform="translate(0 0)">
    <path id="Path_6" data-name="Path 6" d="M177.461,168.927a.558.558,0,0,1,.575-.564h2.483c1.643,0,2.951.611,2.951,2.567a2.363,2.363,0,0,1-1.452,2.435l1.463,2.651a.393.393,0,0,1,.06.216,1.219,1.219,0,0,1-1.175.971.639.639,0,0,1-.6-.348l-1.643-3.191h-.792v2.891c0,.384-.468.576-.935.576s-.935-.192-.935-.576Zm1.871,1.067v2.231h1.188c.672,0,1.08-.276,1.08-1.115s-.408-1.116-1.08-1.116Zm0,0" transform="translate(-154.932 -146.989)" fill="#4925e1"/>
    <path id="Path_7" data-name="Path 7" d="M234.5,172.022h1.8c.36,0,.563.348.563.731,0,.324-.168.708-.563.708h-1.8V175.5h3.215c.36,0,.564.384.564.828,0,.383-.168.8-.564.8h-4.27c-.408,0-.816-.192-.816-.576v-7.617c0-.384.408-.576.816-.576h4.27c.4,0,.564.42.564.8,0,.444-.2.828-.564.828H234.5Zm0,0" transform="translate(-203.099 -146.989)" fill="#4925e1"/>
    <path id="Path_8" data-name="Path 8" d="M287.7,176.628l-2.279-4.15v4.078c0,.383-.468.576-.936.576s-.936-.192-.936-.576v-7.617c0-.4.468-.576.936-.576.671,0,.923.06,1.379.935l1.943,3.706v-4.078c0-.4.468-.563.935-.563s.936.168.936.563v7.629c0,.383-.468.576-.936.576A1.046,1.046,0,0,1,287.7,176.628Zm0,0" transform="translate(-247.556 -146.989)" fill="#4925e1"/>
    <path id="Path_9" data-name="Path 9" d="M343.436,168.363c.4,0,.564.431.564.828,0,.456-.2.851-.564.851h-1.655v6.513c0,.384-.468.576-.935.576s-.936-.192-.936-.576v-6.513h-1.655c-.359,0-.563-.4-.563-.851,0-.4.168-.828.563-.828Zm0,0" transform="translate(-294.82 -146.989)" fill="#4925e1"/>
    <path id="Path_10" data-name="Path 10" d="M271.379,460.285a1.278,1.278,0,0,1-.485-.1,1.225,1.225,0,0,1-.22-.117,1.2,1.2,0,0,1-.193-.157,1.175,1.175,0,0,1-.157-.193,1.225,1.225,0,0,1-.117-.22,1.275,1.275,0,0,1-.072-.237,1.261,1.261,0,0,1-.025-.247,1.287,1.287,0,0,1,.025-.249,1.272,1.272,0,0,1,.189-.456,1.178,1.178,0,0,1,.157-.193,1.3,1.3,0,0,1,.193-.159,1.251,1.251,0,0,1,.22-.117,1.282,1.282,0,0,1,.237-.072,1.249,1.249,0,0,1,.5,0,1.322,1.322,0,0,1,.238.072,1.267,1.267,0,0,1,.412.275,1.255,1.255,0,0,1,.275.412,1.27,1.27,0,0,1,.072.237,1.248,1.248,0,0,1,.024.249,1.22,1.22,0,0,1-.024.247,1.3,1.3,0,0,1-.189.457,1.292,1.292,0,0,1-.159.193,1.182,1.182,0,0,1-.193.157,1.247,1.247,0,0,1-.218.117,1.322,1.322,0,0,1-.238.072A1.281,1.281,0,0,1,271.379,460.285Zm0,0" transform="translate(-235.818 -399.633)" fill="#4925e1"/>
    <path id="Path_11" data-name="Path 11" d="M64.114,43.13,53.075,35.021a1.27,1.27,0,0,0,1.147-1.264v-16.7a1.27,1.27,0,0,0-1.27-1.27H51.43V12.85h9.14a1.269,1.269,0,0,0,1.27-1.27V6.249a1.27,1.27,0,0,0-1.27-1.27H13.807V1.269A1.269,1.269,0,0,0,12.538,0H7.206a1.27,1.27,0,0,0-1.27,1.27v3.71H1.27A1.27,1.27,0,0,0,0,6.249V11.58a1.269,1.269,0,0,0,1.27,1.27H5.937V54.973A9.464,9.464,0,0,0,0,63.73,1.269,1.269,0,0,0,1.27,65h60.15a1.27,1.27,0,0,0,1.27-1.27V52.305a1.27,1.27,0,0,0,1.943-1.076V44.153a1.27,1.27,0,0,0-.518-1.024ZM8.476,2.539h2.792v2.44H8.476ZM62.093,48.721,50.069,39.888c-.028-.02-.057-.04-.085-.058a1.27,1.27,0,0,0-1.332,0c-.029.018-.058.037-.086.058L36.542,48.721V44.8l12.775-9.385L62.093,44.8ZM13.807,12.85h5.885v2.934H18.17a1.27,1.27,0,0,0-1.27,1.27v16.7a1.27,1.27,0,0,0,1.27,1.27H45.552l-11.03,8.1A1.27,1.27,0,0,0,34,44.153v7.076a1.27,1.27,0,0,0,.7,1.133,1.23,1.23,0,0,0,.226.088,10.526,10.526,0,0,0-4.738.156,12.537,12.537,0,0,0-9.541-4.434A12.368,12.368,0,0,0,13.808,50.2V12.85ZM35.946,52.305v.4q-.413-.126-.84-.219A1.27,1.27,0,0,0,35.946,52.305ZM51.683,32.488H19.44V18.323H51.683Zm-2.791-16.7H22.231V12.85h26.66Zm-26.66-5.473V7.518h26.66v2.792Zm37.069,0H51.43V7.518H59.3ZM2.539,7.518H19.692v2.792H2.539Zm3.4,50.275v4.668H2.658A6.932,6.932,0,0,1,5.937,57.793ZM8.476,12.85h2.792V62.461H8.476Zm5.332,49.611v-1.81H30.5a1.27,1.27,0,1,0,0-2.539H13.807V53.435a9.853,9.853,0,0,1,6.838-2.724A9.988,9.988,0,0,1,28.7,54.826a1.27,1.27,0,0,0,1.465.447A7.918,7.918,0,0,1,40.8,62.461Zm33.424,0V55.407H51.4v7.053Zm6.71,0V54.138a1.269,1.269,0,0,0-1.27-1.27h-6.71a1.27,1.27,0,0,0-1.27,1.27v8.323h-1.35a10.455,10.455,0,0,0-4.857-8.584V50.444l10.832-7.957L60.15,50.444V62.461Zm0,0" fill="#4925e1"/>
  </g>
</svg>
