<svg xmlns="http://www.w3.org/2000/svg" width="85.466" height="93.907" viewBox="0 0 85.466 93.907">
  <g id="skyline" transform="translate(-23.011)">
    <g id="Group_21" data-name="Group 21" transform="translate(23.011)">
      <g id="Group_20" data-name="Group 20" transform="translate(0)">
        <path id="Path_24" data-name="Path 24" d="M106.894,90.741h-2.638V7.913a1.583,1.583,0,0,0-1.583-1.583H73.13a1.582,1.582,0,0,0-1.583,1.583v6.858H68.382V7.913A1.583,1.583,0,0,0,66.8,6.331H59.941V1.583a1.583,1.583,0,0,0-3.165,0V6.331H49.917a1.582,1.582,0,0,0-1.583,1.583v6.858H43.586A1.582,1.582,0,0,0,42,16.354V29.544H28.815a1.582,1.582,0,0,0-1.583,1.583V90.741H24.594a1.583,1.583,0,0,0,0,3.166h82.3a1.583,1.583,0,1,0,0-3.165ZM51.5,9.5H65.216v5.276H51.5ZM46.224,90.741H45.169V88.1A1.583,1.583,0,1,0,42,88.1v2.638H40.948V85.466h5.276ZM56.775,50.119V90.741H49.389V83.883A1.583,1.583,0,0,0,47.807,82.3H39.366a1.582,1.582,0,0,0-1.583,1.583v6.858H30.4V32.709H56.775v17.41Zm1.583-20.575H45.169V17.937H71.547v30.6H59.941V43.26h4.748a1.583,1.583,0,1,0,0-3.165H59.941V34.819h4.748a1.583,1.583,0,1,0,0-3.165H59.941v-.527A1.583,1.583,0,0,0,58.358,29.544Zm27.961,61.2H59.941V51.7H86.319Zm14.772,0H89.484V48.008a1.583,1.583,0,0,0-3.165,0v.527H83.154v-.527a1.583,1.583,0,0,0-3.165,0v.527H74.713V9.5h26.378V90.741Z" transform="translate(-23.011)" fill="#4925e1"/>
        <path id="Path_25" data-name="Path 25" d="M254.707,331.858a1.583,1.583,0,0,0,1.583-1.583V300.732a1.583,1.583,0,1,0-3.165,0v29.544A1.583,1.583,0,0,0,254.707,331.858Z" transform="translate(-210.919 -244.282)" fill="#4925e1"/>
        <path id="Path_26" data-name="Path 26" d="M289.224,331.858a1.583,1.583,0,0,0,1.583-1.583V300.732a1.583,1.583,0,1,0-3.165,0v29.544A1.582,1.582,0,0,0,289.224,331.858Z" transform="translate(-239.105 -244.282)" fill="#4925e1"/>
        <path id="Path_27" data-name="Path 27" d="M323.74,331.858a1.583,1.583,0,0,0,1.583-1.583V300.732a1.583,1.583,0,1,0-3.165,0v29.544A1.583,1.583,0,0,0,323.74,331.858Z" transform="translate(-267.29 -244.282)" fill="#4925e1"/>
        <path id="Path_28" data-name="Path 28" d="M335.246,85.815a1.582,1.582,0,0,0,1.583-1.583v-2.11a1.583,1.583,0,0,0-3.165,0v2.11A1.582,1.582,0,0,0,335.246,85.815Z" transform="translate(-276.686 -65.768)" fill="#4925e1"/>
        <path id="Path_29" data-name="Path 29" d="M369.763,85.815a1.582,1.582,0,0,0,1.583-1.583v-2.11a1.583,1.583,0,1,0-3.165,0v2.11A1.582,1.582,0,0,0,369.763,85.815Z" transform="translate(-304.872 -65.768)" fill="#4925e1"/>
        <path id="Path_30" data-name="Path 30" d="M404.28,85.815a1.582,1.582,0,0,0,1.583-1.583v-2.11a1.583,1.583,0,0,0-3.165,0v2.11A1.582,1.582,0,0,0,404.28,85.815Z" transform="translate(-333.058 -65.768)" fill="#4925e1"/>
        <path id="Path_31" data-name="Path 31" d="M335.246,143.343a1.582,1.582,0,0,0,1.583-1.583v-2.11a1.583,1.583,0,1,0-3.165,0v2.11A1.582,1.582,0,0,0,335.246,143.343Z" transform="translate(-276.686 -112.744)" fill="#4925e1"/>
        <path id="Path_32" data-name="Path 32" d="M369.763,143.343a1.582,1.582,0,0,0,1.583-1.583v-2.11a1.583,1.583,0,1,0-3.165,0v2.11A1.582,1.582,0,0,0,369.763,143.343Z" transform="translate(-304.872 -112.744)" fill="#4925e1"/>
        <path id="Path_33" data-name="Path 33" d="M404.28,143.343a1.582,1.582,0,0,0,1.583-1.583v-2.11a1.583,1.583,0,1,0-3.165,0v2.11A1.582,1.582,0,0,0,404.28,143.343Z" transform="translate(-333.058 -112.744)" fill="#4925e1"/>
        <path id="Path_34" data-name="Path 34" d="M335.246,200.872a1.582,1.582,0,0,0,1.583-1.583v-2.11a1.583,1.583,0,1,0-3.165,0v2.11A1.583,1.583,0,0,0,335.246,200.872Z" transform="translate(-276.686 -159.721)" fill="#4925e1"/>
        <path id="Path_35" data-name="Path 35" d="M369.763,200.872a1.582,1.582,0,0,0,1.583-1.583v-2.11a1.583,1.583,0,1,0-3.165,0v2.11A1.583,1.583,0,0,0,369.763,200.872Z" transform="translate(-304.872 -159.721)" fill="#4925e1"/>
        <path id="Path_36" data-name="Path 36" d="M404.28,200.872a1.582,1.582,0,0,0,1.583-1.583v-2.11a1.583,1.583,0,1,0-3.165,0v2.11A1.583,1.583,0,0,0,404.28,200.872Z" transform="translate(-333.058 -159.721)" fill="#4925e1"/>
        <path id="Path_37" data-name="Path 37" d="M93.628,223.883A1.582,1.582,0,0,0,95.21,222.3v-2.11a1.583,1.583,0,1,0-3.165,0v2.11A1.583,1.583,0,0,0,93.628,223.883Z" transform="translate(-79.383 -178.512)" fill="#4925e1"/>
        <path id="Path_38" data-name="Path 38" d="M128.145,223.883a1.582,1.582,0,0,0,1.583-1.583v-2.11a1.583,1.583,0,1,0-3.165,0v2.11A1.583,1.583,0,0,0,128.145,223.883Z" transform="translate(-107.57 -178.512)" fill="#4925e1"/>
        <path id="Path_39" data-name="Path 39" d="M162.662,223.883a1.582,1.582,0,0,0,1.583-1.583v-2.11a1.583,1.583,0,1,0-3.165,0v2.11A1.583,1.583,0,0,0,162.662,223.883Z" transform="translate(-135.756 -178.512)" fill="#4925e1"/>
        <path id="Path_40" data-name="Path 40" d="M93.628,281.411a1.582,1.582,0,0,0,1.583-1.583v-2.11a1.583,1.583,0,1,0-3.165,0v2.11A1.583,1.583,0,0,0,93.628,281.411Z" transform="translate(-79.383 -225.489)" fill="#4925e1"/>
        <path id="Path_41" data-name="Path 41" d="M128.145,281.411a1.582,1.582,0,0,0,1.583-1.583v-2.11a1.583,1.583,0,1,0-3.165,0v2.11A1.583,1.583,0,0,0,128.145,281.411Z" transform="translate(-107.57 -225.489)" fill="#4925e1"/>
        <path id="Path_42" data-name="Path 42" d="M162.662,281.411a1.582,1.582,0,0,0,1.583-1.583v-2.11a1.583,1.583,0,1,0-3.165,0v2.11A1.583,1.583,0,0,0,162.662,281.411Z" transform="translate(-135.756 -225.489)" fill="#4925e1"/>
        <path id="Path_43" data-name="Path 43" d="M93.628,338.939a1.582,1.582,0,0,0,1.583-1.583v-2.11a1.583,1.583,0,1,0-3.165,0v2.11A1.583,1.583,0,0,0,93.628,338.939Z" transform="translate(-79.383 -272.465)" fill="#4925e1"/>
        <path id="Path_44" data-name="Path 44" d="M128.145,338.939a1.582,1.582,0,0,0,1.583-1.583v-2.11a1.583,1.583,0,1,0-3.165,0v2.11A1.582,1.582,0,0,0,128.145,338.939Z" transform="translate(-107.57 -272.465)" fill="#4925e1"/>
        <path id="Path_45" data-name="Path 45" d="M162.662,338.939a1.582,1.582,0,0,0,1.583-1.583v-2.11a1.583,1.583,0,1,0-3.165,0v2.11A1.582,1.582,0,0,0,162.662,338.939Z" transform="translate(-135.756 -272.465)" fill="#4925e1"/>
        <path id="Path_46" data-name="Path 46" d="M93.628,396.467a1.582,1.582,0,0,0,1.583-1.583v-2.11a1.583,1.583,0,1,0-3.165,0v2.11A1.583,1.583,0,0,0,93.628,396.467Z" transform="translate(-79.383 -319.442)" fill="#4925e1"/>
        <path id="Path_47" data-name="Path 47" d="M128.145,396.467a1.582,1.582,0,0,0,1.583-1.583v-2.11a1.583,1.583,0,1,0-3.165,0v2.11A1.582,1.582,0,0,0,128.145,396.467Z" transform="translate(-107.57 -319.442)" fill="#4925e1"/>
        <path id="Path_48" data-name="Path 48" d="M162.662,396.467a1.582,1.582,0,0,0,1.583-1.583v-2.11a1.583,1.583,0,1,0-3.165,0v2.11A1.582,1.582,0,0,0,162.662,396.467Z" transform="translate(-135.756 -319.442)" fill="#4925e1"/>
        <path id="Path_49" data-name="Path 49" d="M404.28,258.4a1.582,1.582,0,0,0,1.583-1.583v-2.11a1.583,1.583,0,0,0-3.165,0v2.11A1.583,1.583,0,0,0,404.28,258.4Z" transform="translate(-333.058 -206.698)" fill="#4925e1"/>
        <path id="Path_50" data-name="Path 50" d="M404.28,315.928a1.583,1.583,0,0,0,1.583-1.583v-2.11a1.583,1.583,0,0,0-3.165,0v2.11A1.583,1.583,0,0,0,404.28,315.928Z" transform="translate(-333.058 -253.675)" fill="#4925e1"/>
        <path id="Path_51" data-name="Path 51" d="M404.28,373.456a1.582,1.582,0,0,0,1.583-1.583v-2.11a1.583,1.583,0,0,0-3.165,0v2.11A1.583,1.583,0,0,0,404.28,373.456Z" transform="translate(-333.058 -300.651)" fill="#4925e1"/>
        <path id="Path_52" data-name="Path 52" d="M404.28,430.984a1.582,1.582,0,0,0,1.583-1.583v-2.11a1.583,1.583,0,0,0-3.165,0v2.11A1.583,1.583,0,0,0,404.28,430.984Z" transform="translate(-333.058 -347.628)" fill="#4925e1"/>
        <path id="Path_53" data-name="Path 53" d="M188.411,128.145a1.583,1.583,0,0,0-1.583-1.583H174.167a1.583,1.583,0,1,0,0,3.165h12.662A1.582,1.582,0,0,0,188.411,128.145Z" transform="translate(-145.151 -103.349)" fill="#4925e1"/>
      </g>
    </g>
  </g>
</svg>
