<svg id="iconfinder_YouTube_194904" xmlns="http://www.w3.org/2000/svg" width="50" height="50" viewBox="0 0 50 50">
  <g id="YouTube">
    <path id="Oval-1" d="M50,25A25,25,0,1,0,25,50,25,25,0,0,0,50,25Zm-3,0A22,22,0,1,0,25,47,22,22,0,0,0,47,25ZM36.768,30.765a3.081,3.081,0,0,1-2.636,2.4A81.9,81.9,0,0,1,25,33.5a81.9,81.9,0,0,1-9.133-.338,3.08,3.08,0,0,1-2.636-2.4A26.14,26.14,0,0,1,12.8,25a26.159,26.159,0,0,1,.429-5.766,3.08,3.08,0,0,1,2.636-2.4A81.9,81.9,0,0,1,25,16.5a81.9,81.9,0,0,1,9.133.338,3.08,3.08,0,0,1,2.636,2.4A26.137,26.137,0,0,1,37.2,25,26.153,26.153,0,0,1,36.768,30.765ZM22.8,20.5l6.75,3.9-6.75,3.9Zm0,0" fill="#fff" fill-rule="evenodd"/>
  </g>
</svg>
